<?xml version="1.0" standalone="no"?>
<!DOCTYPE svg PUBLIC "-//W3C//DTD SVG 20010904//EN"
 "http://www.w3.org/TR/2001/REC-SVG-20010904/DTD/svg10.dtd">
<svg version="1.0" xmlns="http://www.w3.org/2000/svg"
 width="152.000000pt" height="152.000000pt" viewBox="0 0 152.000000 152.000000"
 preserveAspectRatio="xMidYMid meet">
<metadata>
Created by potrace 1.14, written by Peter Selinger 2001-2017
</metadata>
<g transform="translate(0.000000,152.000000) scale(0.100000,-0.100000)"
fill="#000000" stroke="none">
<path d="M0 760 l0 -760 760 0 760 0 0 760 0 760 -760 0 -760 0 0 -760z m615
182 c9 -71 21 -83 30 -31 11 74 14 79 46 79 25 0 29 -3 24 -22 -3 -13 -11 -50
-18 -83 l-13 -60 -51 -3 -51 -3 -16 72 c-22 96 -21 99 13 99 27 0 30 -3 36
-48z m249 42 c11 -4 16 -19 16 -50 l0 -44 -45 0 c-33 0 -45 -4 -45 -15 0 -11
12 -15 46 -15 38 0 45 -3 42 -17 -2 -14 -15 -19 -55 -21 -80 -5 -93 6 -93 81
0 36 5 68 12 75 12 12 95 16 122 6z m146 -14 c0 -15 -7 -20 -25 -20 -23 0 -24
-4 -27 -62 -3 -60 -4 -63 -30 -66 l-28 -3 0 73 c0 44 5 79 12 86 7 7 31 12 55
12 36 0 43 -3 43 -20z m150 0 c0 -17 -7 -20 -40 -20 -29 0 -40 -4 -40 -15 0
-11 11 -15 39 -15 44 0 57 -18 45 -64 -7 -30 -31 -39 -95 -34 -32 2 -45 8 -47
21 -3 14 4 17 47 17 39 0 51 4 51 15 0 11 -12 15 -44 15 -45 0 -56 10 -56 50
0 34 28 50 86 50 47 0 54 -2 54 -20z m78 -47 c3 -59 4 -63 27 -63 18 0 25 -5
25 -20 0 -17 -7 -20 -43 -20 -24 0 -48 5 -55 12 -7 7 -12 42 -12 86 l0 73 28
-3 c26 -3 27 -6 30 -65z m210 55 c7 -7 12 -39 12 -75 0 -72 -11 -83 -84 -83
-60 0 -76 18 -76 85 0 70 15 85 84 85 28 0 57 -5 64 -12z m-1195 -90 l16 -23
16 23 c9 12 27 22 41 22 29 0 29 0 7 -45 -16 -33 -20 -35 -65 -35 -43 0 -49 3
-63 30 -8 16 -15 34 -15 40 0 19 47 10 63 -12z m935 -106 c19 -24 17 -216 -3
-236 -22 -21 -75 -30 -152 -23 -90 7 -97 16 -101 130 -3 117 7 140 68 148 70
10 173 0 188 -19z m-798 -9 c-1 -20 -20 -51 -65 -103 l-65 -75 65 -3 65 -3 0
-34 0 -35 -125 0 -125 0 0 31 c0 24 16 50 66 110 l66 79 -66 0 -66 0 0 30 0
30 125 0 125 0 0 -27z m118 -110 l-3 -138 -47 -3 -48 -3 0 140 0 141 50 0 51
0 -3 -137z m277 121 c13 -13 15 -37 13 -138 l-3 -121 -47 -3 -48 -3 0 110 0
111 -40 0 -40 0 0 -110 0 -110 -45 0 -45 0 0 128 c0 86 4 132 12 140 8 8 49
12 119 12 85 0 111 -3 124 -16z m133 -121 l-3 -138 -47 -3 -48 -3 0 140 0 141
50 0 51 0 -3 -137z m540 110 c-3 -27 -5 -28 -70 -31 -58 -2 -68 -6 -68 -21 0
-15 11 -19 61 -24 34 -3 66 -10 72 -16 5 -5 12 -32 14 -58 4 -38 1 -53 -15
-73 -19 -24 -25 -25 -124 -25 l-103 0 -3 28 -3 27 80 0 c79 0 81 1 81 24 0 22
-4 24 -66 28 -50 3 -70 9 -80 23 -19 25 -18 95 2 123 14 20 23 22 120 22 l105
0 -3 -27z"/>
<path d="M790 935 c0 -8 9 -15 20 -15 11 0 20 7 20 15 0 8 -9 15 -20 15 -11 0
-20 -7 -20 -15z"/>
<path d="M1360 905 c0 -38 3 -45 20 -45 17 0 20 7 20 45 0 38 -3 45 -20 45
-17 0 -20 -7 -20 -45z"/>
<path d="M1030 665 l0 -75 35 0 35 0 0 75 0 75 -35 0 -35 0 0 -75z"/>
</g>
</svg>
