<svg xmlns="http://www.w3.org/2000/svg" width="80" viewBox="0 0 80 28" height="28">
    <path transform="translate(-12 -11)" fill="#fff" fill-rule="evenodd" d="m28.161 22.137h6.024v16.794h-6.024v-16.794zm17.708 16.794v-12.969h-4.527v12.969h-5.959v-12.839c0-2.626 1.3-3.955 4.038-3.955h8.4c3 0 4.006 1.426 4.006 3.955v12.839h-5.958zm7.157-16.794h6.024v16.794h-6.025v-16.794zm17.182 3.825h-4.168v9.143h4.168v-9.143zm1.892 12.969s-3.455 0.069-4.009 0.069c-0.944 0-4.038-0.064-4.038-0.064-2.051-0.033-4.005-0.746-4.005-4.02v-8.5c0-2.043 0.716-4.215 4.1-4.279 0 0 3.191-0.065 3.973-0.065 0.944 0 4.038 0.065 4.038 0.065 2.019 0.032 4.037 0.681 4.037 4.085v8.462c0 2.01-0.651 4.183-4.1 4.248m16.118 0h-10.877v-3.568h9.9v-2.982h-5.894c-3.549 0-4.005-1.589-4.005-5.058 0-3.015 0.554-5.187 4.038-5.187h10.094v3.563h-8.434v2.983h5.243c3.549 0 3.973 1.686 3.973 4.9 0 3.437-0.586 5.35-4.037 5.35m-34.657-25.743h-2.488v2.269h2.488v-2.269zm-2.469 3.554v1.816h5.527v2.364h-6.609a2.145 2.145 0 0 1 -2.393 -2.383v-4.916a2.187 2.187 0 0 1 2.374 -2.5s1.88-0.038 2.374-0.038 2.336 0.038 2.336 0.038a2.062 2.062 0 0 1 2.336 2.382v3.233h-5.945zm10.336-3.384v7.564h-3.494v-7.412a2.122 2.122 0 0 1 2.412 -2.382h4.349v2.23h-3.267zm20.132 5.368v2.239h-4.349a2.126 2.126 0 0 1 -2.412 -2.39v-7.438h3.494v7.589h3.267zm-9.876 2.2h-6.344v-2.08h5.774v-1.748h-3.438c-2.07 0-2.336-0.927-2.336-2.95 0-1.759 0.323-3.026 2.355-3.026h5.888v2.08h-4.92v1.74h3.058c2.07 0 2.317 0.983 2.317 2.855 0 2-0.342 3.12-2.355 3.12m16.643-7.559h-2.431v5.333h2.431v-5.333zm1.1 7.564s-2.013 0.037-2.336 0.037c-0.55 0-2.356-0.037-2.356-0.037a2.07 2.07 0 0 1 -2.331 -2.345v-4.954a2.194 2.194 0 0 1 2.393 -2.5s1.86-0.038 2.317-0.038c0.551 0 2.355 0.038 2.355 0.038a2.085 2.085 0 0 1 2.355 2.382v4.935a2.17 2.17 0 0 1 -2.393 2.477m-47.4-2.458h-0.362l-1.419-7.461h-3.755l2.288 9.926h6.078l2.272-9.926h-3.671zm-19.493 2.21h-5.348l-2.642-4.643h3.456l1.859 2.565 1.924-2.565h3.359zm-10.534 18.281v-3.41l8.153-9.542h-7.794v-3.868h14.806v3.442l-8.186 9.514h8.221v3.864h-15.2z"></path>
</svg>